<svg fill="none" height="24" viewBox="0 0 24 24" width="24" xmlns="http://www.w3.org/2000/svg"><path d="m19.6256 17.7613c-.0003-.0002-.0005-.0005-.0005-.0006-.1412-.1594-.2084-.4547-.2807-.7694-.0721-.3144-.1528-.6535-.4109-.8732-.0005-.0005-.0012-.0009-.0017-.0014-.0511-.0447-.1037-.0824-.1565-.1138-.053-.0313-.1067-.0569-.1604-.0772.3589-1.0641.2181-2.1239-.1442-3.0814-.4445-1.1753-1.2204-2.1992-1.8133-2.89971-.6634-.83697-1.3123-1.63139-1.2995-2.80488.0198-1.79093.1969-5.11209-2.9546-5.11651-.1282-.00023-.2619.00512-.4012.01628-3.52188.28349-2.5877 4.00442-2.64002 5.25023-.06442.91117-.24907 1.62931-.87582 2.52-.73604.87539-1.77279 2.29229-2.26372 3.76749-.23163.696-.34186 1.4056-.24023 2.0771-.03186.0286-.06209.0587-.09117.0894-.21604.2309-.37581.5104-.55371.6986-.16629.166-.40303.229-.6635.3223-.26046.0935-.54627.2312-.71976.5642 0 0 0 .0002-.00024.0002-.00023.0005-.00046.0012-.00092.0016-.08163.1523-.10814.3167-.10814.4835 0 .1542.02279.3105.04581.4609.0479.3131.09651.6091.0321.8096-.20605.5635-.23256.953-.08745 1.2358.14558.2833.44442.4082.78233.4788.67581.141 1.59092.1061 2.31209.4884l.06209-.1169-.06139.1171c.77209.4038 1.55488.547 2.1793.4044.45303-.1032.82047-.3729 1.00935-.7879.4883-.0023 1.0244-.2092 1.883-.2564.5826-.047 1.3102.2069 2.1472.1604.0219.0907.0535.1781.0967.2612.0005.0007.0009.0016.0014.0023.3244.6489.9273.9456 1.5698.8949.6432-.0507 1.3272-.43 1.8802-1.088l-.1013-.085.1021.0841c.527-.639 1.4016-.9039 1.9818-1.2536.29-.1749.5252-.394.5435-.7122.0181-.3178-.1687-.6742-.5979-1.1507z" fill="#202020"/><path d="m19.959 18.897c-.0112.1962-.1533.342-.4158.5002-.5247.3165-1.4547.5918-2.0484 1.3112-.5158.6136-1.1446.9506-1.6983.9944-.5538.0437-1.0314-.1861-1.3133-.7514l-.0005-.0012-.0006-.0014c-.1749-.3326-.1022-.857.0451-1.4104.1471-.5533.3588-1.1217.3871-1.5833v-.0014c.0298-.5917.063-1.1084.1624-1.5072.0995-.3989.256-.6686.5332-.8205.013-.007.0258-.0137.0386-.02.0314.5123.2852 1.0351.7335 1.1481.4907.1294 1.1979-.2916 1.4965-.6351.0597-.0023.1179-.0053.1744-.0067.2622-.0063.4817.0088.7063.2051l.0007.0006.0007.0005c.1726.1464.2546.4226.3258.732.0712.3095.1279.6465.3414.8866l.0003.0003.0002.0005c.4103.4551.5421.7626.5307.9591z" fill="#f8bf11"/><path d="m9.98818 20.3478-.00023.0014v.0016c-.04744.6219-.39814.9605-.93674 1.0835-.53814.1231-1.26814.0005-1.99698-.3807-.00023 0-.00046-.0002-.0007-.0002-.80651-.4272-1.76581-.3847-2.3814-.5133-.30767-.0642-.5086-.1609-.60069-.3405-.0921-.1797-.09419-.493.10163-1.0272l.00093-.0023.00069-.0023c.09698-.2989.02512-.6259-.02186-.9329-.04697-.3066-.07-.586.03489-.7804l.00093-.0019c.13418-.2586.33093-.3511.57512-.4386.24441-.0876.53395-.1565.76256-.3858l.00139-.0012.00116-.0011c.2114-.223.37024-.5028.55605-.7011.15675-.1675.31372-.2784.55023-.28.00279.0002.00535.0002.00814 0 .04139.0002.08535.0036.13186.0109.31396.0474.58767.2669.8514.6247l.76139 1.3876.00023.0007.00047.0005c.20256.423.63047.8883.99303 1.363.36255.4744.64302.9509.6065 1.3156z" fill="#f8bf11"/><path d="m13.7854 7.41138c-.0611-.11977-.186-.23372-.3986-.32093l-.0004-.00023-.0007-.00024c-.4421-.1893-.634-.20279-.8807-.36325-.4017-.25815-.7335-.34861-1.0093-.34745-.1445.00047-.2735.02605-.3891.06605-.336.11558-.559.35675-.6989.48907l-.0001.00023c0 .00024-.0003.00024-.0003.00047-.0274.02604-.0628.04977-.1484.11256-.0862.06302-.2155.15791-.40159.29744-.16535.12395-.21906.28535-.16185.47442.05697.18906.2393.40721.57274.59581l.0005.00046.0007.00024c.207.12163.3483.28558.5107.41605.0811.06511.1665.12325.2693.1672s.2228.07373.373.08256c.3526.02047.6121-.08535.8412-.21651.2296-.13093.4239-.29116.647-.36349l.0004-.00023.0005-.00023c.4572-.1428.7832-.43047.8853-.70372.0512-.13675.0496-.26652-.0114-.38628z" fill="#d6a312"/><path d="m12.6256 8.08636c-.3638.1896-.7886.41953-1.2408.41953-.4518 0-.8088-.20883-1.0655-.41232-.1284-.10163-.2326-.20279-.3112-.27628-.13635-.10765-.12002-.25865-.06398-.25419.09388.01173.10808.13539.16728.1907.08.07489.1802.17186.3016.26814.2428.19233.5665.37954.9718.37954.4047 0 .8771-.23757 1.1655-.3993.1633-.09164.3711-.25589.5408-.38041.1297-.09527.125-.20998.2322-.19749.1071.01249.0279.12697-.1222.25794s-.3848.30474-.5755.40414z" fill="#202020"/><path d="m18.1952 15.8482c-.0505-.0018-.1002-.0016-.1486-.0004-.0044.0002-.0089.0002-.0134.0002.1248-.3945-.1515-.6854-.8878-1.0184-.7634-.3358-1.3718-.3026-1.4746.3789-.0066.0355-.0119.072-.0158.1088-.0573.02-.1144.0451-.1721.0765-.3584.1962-.5542.5521-.6631.9888-.1086.4364-.14.9635-.1697 1.5564v.0004c-.0184.298-.1412.7011-.2654 1.1281-1.2506.8924-2.9865 1.2789-4.46041.2729-.09977-.1579-.21442-.3144-.33233-.4689-.07534-.0985-.15279-.1965-.22954-.2932.15117.0002.27977-.0247.38373-.0717.1293-.0588.22-.1527.26515-.2737.0897-.2416-.0005-.5825-.28818-.9721-.28767-.3893-.77488-.8286-1.4907-1.2677 0 0 0 0 0-.0002-.52604-.3272-.82-.7282-.95767-1.1635-.1379-.4356-.1186-.9065-.01233-1.3714.20373-.8923.72699-1.7602 1.06094-2.3049.08976-.0661.03209.1229-.33814.8103-.33163.6284-.95186 2.0786-.1028 3.2106.0228-.8055.21512-1.6271.53815-2.3958.47046-1.0662 1.45441-2.91576 1.53255-4.38972.04047.02931.17888.12279.24048.15791.0002.00023.0002.00023.0005.00023.1804.10628.316.26162.4916.40279.176.14139.3958.26349.7279.28279.0318.00186.063.00279.0935.00279.3423 0 .6093-.11163.8316-.23884.2416-.13813.4346-.29116.6177-.35069.0003-.00023.0004-.00023.0007-.00023.3867-.12094.694-.33489.8688-.58419.3005 1.18419.9991 2.89466 1.4482 3.72936.2388.4427.7136 1.3836.9188 2.5174.13-.004.2733.0148.4265.0542.5365-1.391-.4548-2.8889-.9083-3.3061-.1831-.1777-.1919-.2572-.1009-.2535.4915.4351 1.1374 1.3098 1.3722 2.2972.1073.4502.13.9238.0152 1.3909.056.0233.1132.0486.1711.0761.8611.4193 1.1795.7839 1.0265 1.2816z" fill="#fff"/><path d="m12.0581 12.0881c-.7948.003-1.5707.3592-2.22694 1.0228-.65628.6635-1.16267 1.6036-1.45347 2.6983l.0872.0543v.0049c.67145.4263 1.14965.8541 1.44518 1.254v.0001h.00005c.31238.423.45138.835.31908 1.1912l-.0001.0002v.0001c-.067.1796-.2098.3236-.38671.4041l-.00031.0001-.00028.0002c-.01859.0084-.03845.0146-.05773.0218.10582.1388.20947.2819.30493.4287 1.3486.8975 2.9173.5655 4.0947-.2465.115-.3963.2197-.7658.2341-.9967.0298-.5935.0597-1.1311.1763-1.5994.1175-.4716.3461-.9007.777-1.1367l.0002-.0001.0003-.0001c.0242-.0132.0486-.0209.0728-.0323.0078-.0467.0186-.0916.0317-.1349-.3467-.8886-.8448-1.6272-1.4444-2.1421-.5998-.5147-1.2803-.7879-1.9736-.792zm3.3838 3.0783-.0011.0072c0-.0008.0004-.0015.0005-.0024.0003-.0016.0004-.0032.0006-.0048z" fill="#e6e6e6"/><path d="m13.8257 6.04711c.0019.23465-.0386.43442-.1277.63837-.0506.11628-.109.21395-.179.2986-.0237-.0114-.0484-.02232-.074-.03279-.0886-.03791-.167-.06906-.2371-.09558-.0703-.02651-.1251-.04463-.1816-.06416.0409-.04953.1216-.10791.1516-.18117.0455-.11046.0679-.21836.0721-.34697 0-.00512.0016-.00953.0016-.01558.0026-.12325-.0137-.2286-.0497-.33651-.0377-.11326-.0856-.19465-.155-.26233-.0695-.06767-.1388-.09837-.222-.10116-.004-.00024-.0077-.00024-.0116-.00024-.0782.00024-.1461.02721-.2164.08582-.0737.06162-.1283.14047-.1739.25023-.0453.10977-.0676.2186-.0721.34791-.0007.00512-.0007.00953-.0007.01465-.0016.07116.0031.13628.014.19953-.16-.07976-.3648-.13793-.5061-.17164-.0082-.06117-.0128-.1242-.0142-.19024v-.01791c-.0025-.23395.0358-.43465.1258-.63837.09-.20395.2014-.35046.3582-.46977.1569-.11907.3111-.17372.4936-.17557h.0087c.1786 0 .3313.05255.4883.16627.1594.11582.2742.26047.3668.46279.0906.19721.1344.39.1388.6186 0 .00605 0 .01117.0016.01722z" fill="#fff"/><path d="m11.1262 6.28097c-.0235.00675-.0464.01396-.0689.02163-.1279.04419-.2295.09295-.3276.15783.0096-.0679.0109-.13674.0035-.21372-.0007-.00418-.0007-.00768-.0007-.01186-.0102-.10209-.0319-.18767-.0679-.27418-.0384-.09-.0814-.15349-.1379-.20233-.0512-.04419-.0995-.06465-.153-.06419-.0054 0-.0109.00024-.0165.0007-.0601.00512-.1098.03442-.157.09186-.047.05721-.0779.12837-.1003.22279-.0223.09419-.0281.18675-.0188.29303 0 .00418.0009.00767.0009.01185.0103.10303.031.18861.0677.27512.0377.08908.0814.15256.1379.2014.0095.00813.0188.01558.0281.02209-.0586.04535-.0979.07752-.1463.11286-.0309.02256-.0677.04954-.1105.08117-.09323-.08744-.16602-.19721-.22975-.34209-.07535-.17117-.11557-.34256-.12767-.54489v-.00163c-.01116-.20233.00861-.37628.06419-.55628.05581-.18.13023-.31023.23833-.4172.1079-.10721.2168-.16117.3479-.16791.0103-.00047.0203-.0007.0303-.0007.1188.00023.2249.03976.3346.12744.1191.09512.2091.21675.2845.38814.0755.1714.1158.34279.127.54512v.00162c.0053.08489.0045.16489-.0021.24233z" fill="#fff"/><g fill="#202020"><path d="m11.7231 6.76493c.0151.04828.0928.04028.1378.06344.0394.02031.0712.06486.1155.06614.0424.00122.1083-.01467.1138-.05666.0072-.05548-.0738-.09073-.1259-.11106-.067-.02616-.153-.03943-.216-.00444-.0144.00803-.0301.02683-.0252.04258z"/><path d="m11.2633 6.76493c-.0151.04828-.0929.04028-.1378.06344-.0395.02031-.0712.06486-.1156.06614-.0423.00122-.1082-.01467-.1137-.05666-.0073-.05548.0737-.09073.1259-.11106.067-.02616.153-.03943.216-.00444.0144.00803.0301.02683.0252.04258z"/></g></svg>